<?xml version="1.0" encoding="utf-8"?>
<!-- Generator: Adobe Illustrator 17.0.1, SVG Export Plug-In . SVG Version: 6.00 Build 0)  -->
<!DOCTYPE svg PUBLIC "-//W3C//DTD SVG 1.1//EN" "http://www.w3.org/Graphics/SVG/1.1/DTD/svg11.dtd">
<svg version="1.1" id="Layer_1" xmlns="http://www.w3.org/2000/svg" xmlns:xlink="http://www.w3.org/1999/xlink" x="0px" y="0px"
	 width="3162.137px" height="683.897px" viewBox="0 0 3162.137 683.897" enable-background="new 0 0 3162.137 683.897"
	 xml:space="preserve">
<g transform="scale(8.10687371546015) translate(10, 10)">
	<g id="SvgjsG1014" transform="matrix(1.3693635427686397,0,0,1.3693635427686397,-6.847803688607822,-12.324271884917756)">
		<g transform="translate(0,-988.36219)">
			<path fill="#FFFFFF" d="M44,997.362v0.5v26.5h-5v-11h-7v0.5v10.5h-5v-19h-7v0.5v18.5h-5v-10H8v0.5v9.5H5.508
				c-0.276-0.004-0.503,0.217-0.507,0.493c-0.004,0.276,0.217,0.503,0.493,0.507c0.005,0,0.009,0,0.014,0H8h6v12h7v-12h5v8h7v-8h5
				v19h7v-19h5v13h7v-13h1.492c0.276,0.004,0.503-0.217,0.507-0.493c0.004-0.276-0.217-0.503-0.493-0.507c-0.005,0-0.009,0-0.014,0
				H57h-6v-27H44z M45,998.362h5v26h-5V998.362z M21,1006.362h5v18h-5V1006.362z M33,1014.362h5v10h-5V1014.362z M9,1015.362h5v9H9
				V1015.362z M15,1025.362h5v11h-5V1025.362z M27,1025.362h5v7h-5V1025.362z M39,1025.362h5v18h-5V1025.362z M51,1025.362h5v12h-5
				V1025.362z"/>
		</g>
	</g>
	<g id="SvgjsG1015" transform="matrix(2.734856083632518,0,0,2.734856083632518,91.81211526350208,-11.971556033476817)">
		<path fill="#FFFFFF" d="M4.04,6c2.2,0,3.28,1.22,3.28,3.46v1.82c0,2.24-1.08,3.46-3.28,3.46H3V20H0.8V6H4.04z M4.04,8H3v4.74h1.04
			c0.7,0,1.08-0.32,1.08-1.32v-2.1C5.12,8.32,4.74,8,4.04,8L4.04,8z M12.96,6l2.24,14h-2.22l-0.38-2.54H9.9L9.52,20H7.5L9.74,6
			H12.96z M11.22,8.48l-1.04,7.08h2.12l-1.04-7.08H11.22z M16.22,20V6h2.2v14H16.22z M26.86,20h-2.24c-0.12-0.36-0.2-0.58-0.2-1.72
			v-2.2c0-1.3-0.44-1.78-1.44-1.78h-0.76V20h-2.2V6h3.32c2.28,0,3.26,1.06,3.26,3.22v1.1c0,1.44-0.46,2.36-1.44,2.82v0.04
			c1.1,0.46,1.46,1.5,1.46,2.96v2.16C26.62,18.98,26.64,19.48,26.86,20L26.86,20z M23.28,8h-1.06v4.3h0.86
			c0.82,0,1.32-0.36,1.32-1.48V9.44C24.4,8.44,24.06,8,23.28,8L23.28,8z M27.42,8V6h6.8v2h-2.3v12h-2.2V8H27.42L27.42,8z M42.02,20
			h-2.24c-0.12-0.36-0.2-0.58-0.2-1.72v-2.2c0-1.3-0.44-1.78-1.44-1.78h-0.76V20h-2.2V6h3.32c2.28,0,3.26,1.06,3.26,3.22v1.1
			c0,1.44-0.46,2.36-1.44,2.82v0.04c1.1,0.46,1.46,1.5,1.46,2.96v2.16C41.78,18.98,41.8,19.48,42.02,20z M38.44,8h-1.06v4.3h0.86
			c0.82,0,1.32-0.36,1.32-1.48V9.44C39.56,8.44,39.22,8,38.44,8L38.44,8z M48.1,6l2.24,14h-2.22l-0.38-2.54h-2.7L44.66,20h-2.02
			l2.24-14H48.1z M46.36,8.48l-1.04,7.08h2.12L46.4,8.48H46.36L46.36,8.48z M51.36,20V6h3.48c2.2,0,3.28,1.22,3.28,3.46v7.08
			c0,2.24-1.08,3.46-3.28,3.46H51.36z M54.8,8h-1.24v10h1.24c0.7,0,1.12-0.36,1.12-1.36V9.36C55.92,8.36,55.5,8,54.8,8L54.8,8z
			 M59.52,20V6h2.2v14H59.52z M68.02,20l-2.7-10.14h-0.04V20H63.3V6h2.76l2.22,8.38h0.04V6h1.96v14H68.02z M75.16,14.2v-2h3.08v4.44
			c0,2.24-1.12,3.52-3.28,3.52s-3.28-1.28-3.28-3.52V9.36c0-2.24,1.12-3.52,3.28-3.52s3.28,1.28,3.28,3.52v1.36h-2.08v-1.5
			c0-1-0.44-1.38-1.14-1.38s-1.14,0.38-1.14,1.38v7.56c0,1,0.44,1.36,1.14,1.36s1.14-0.36,1.14-1.36V14.2L75.16,14.2L75.16,14.2z
			 M82.9,6c2.2,0,3.28,1.22,3.28,3.46v1.82c0,2.24-1.08,3.46-3.28,3.46h-1.04V20h-2.2V6H82.9z M82.9,8h-1.04v4.74h1.04
			c0.7,0,1.08-0.32,1.08-1.32v-2.1C83.98,8.32,83.6,8,82.9,8L82.9,8z M94.04,20H91.8c-0.12-0.36-0.2-0.58-0.2-1.72v-2.2
			c0-1.3-0.44-1.78-1.44-1.78H89.4V20h-2.2V6h3.32c2.28,0,3.26,1.06,3.26,3.22v1.1c0,1.44-0.46,2.36-1.44,2.82v0.04
			c1.1,0.46,1.46,1.5,1.46,2.96v2.16C93.8,18.98,93.82,19.48,94.04,20z M90.46,8H89.4v4.3h0.86c0.82,0,1.32-0.36,1.32-1.48V9.44
			C91.58,8.44,91.24,8,90.46,8L90.46,8z M97.26,9.22v7.56c0,1,0.44,1.38,1.14,1.38s1.14-0.38,1.14-1.38V9.22
			c0-1-0.44-1.38-1.14-1.38S97.26,8.22,97.26,9.22L97.26,9.22z M95.06,16.64V9.36c0-2.24,1.18-3.52,3.34-3.52s3.34,1.28,3.34,3.52
			v7.28c0,2.24-1.18,3.52-3.34,3.52S95.06,18.88,95.06,16.64z"/>
	</g>
	<g id="SvgjsG1016" transform="matrix(0.5566453368637,0,0,0.5566453368637,93.55468372387331,49.7491919440662)">
		<path fill="#FFFFFF" d="M0.8,20V6h3.48c2.2,0,3.28,1.22,3.28,3.46v7.08c0,2.24-1.08,3.46-3.28,3.46C4.28,20,0.8,20,0.8,20z
			 M4.24,8H3v10h1.24c0.7,0,1.12-0.36,1.12-1.36V9.36C5.36,8.36,4.94,8,4.24,8z M21.98,8v3.9H25v2h-3.02V18h3.8v2h-6V6h6v2H21.98z
			 M37.96,20V6h2.2v12h3.62v2H37.96z M53.92,8V6h6.8v2h-2.3v12h-2.2V8H53.92z M76.62,6l2.24,14h-2.22l-0.38-2.54h-2.7L73.18,20
			h-2.02L73.4,6H76.62L76.62,6z M74.88,8.48l-1.04,7.08h2.12l-1.04-7.08H74.88z M90.4,14v-2h4v2H90.4z M111.42,20l-2.7-10.14h-0.04
			V20h-1.98V6h2.76l2.22,8.38h0.04V6h1.96v14H111.42z M128.28,8v3.9h3.02v2h-3.02V18h3.8v2h-6V6h6v2H128.28z M144.16,6h2.2v10.8
			c0,1,0.44,1.36,1.14,1.36s1.14-0.36,1.14-1.36V6h2.08v10.66c0,2.24-1.12,3.52-3.28,3.52s-3.28-1.28-3.28-3.52V6z M162.4,8V6h6.8v2
			h-2.3v12h-2.2V8H162.4z M187.82,20h-2.24c-0.12-0.36-0.2-0.58-0.2-1.72v-2.2c0-1.3-0.44-1.78-1.44-1.78h-0.76V20h-2.2V6h3.32
			c2.28,0,3.26,1.06,3.26,3.22v1.1c0,1.44-0.46,2.36-1.44,2.82v0.04c1.1,0.46,1.46,1.5,1.46,2.96v2.16
			C187.58,18.98,187.6,19.48,187.82,20L187.82,20z M184.24,8h-1.06v4.3h0.86c0.82,0,1.32-0.36,1.32-1.48V9.44
			C185.36,8.44,185.02,8,184.24,8L184.24,8z M204.72,6l2.24,14h-2.22l-0.38-2.54h-2.7L201.28,20h-2.02l2.24-14H204.72z M202.98,8.48
			l-1.04,7.08h2.12l-1.04-7.08H202.98L202.98,8.48z M218.8,20V6h2.2v12h3.62v2H218.8L218.8,20z M250.04,9.36
			c0-2.24,1.1-3.52,3.24-3.52s3.24,1.28,3.24,3.52V9.8h-2.08V9.22c0-1-0.4-1.38-1.1-1.38s-1.1,0.38-1.1,1.38
			c0,1.02,0.44,1.78,1.88,3.04c1.84,1.62,2.42,2.78,2.42,4.38c0,2.24-1.12,3.52-3.28,3.52s-3.28-1.28-3.28-3.52v-0.86h2.08v1
			c0,1,0.44,1.36,1.14,1.36s1.14-0.36,1.14-1.36c0-1.02-0.44-1.78-1.88-3.04C250.62,12.12,250.04,10.96,250.04,9.36L250.04,9.36z
			 M267.98,8V6h6.8v2h-2.3v12h-2.2V8H267.98z M293.4,20h-2.24c-0.12-0.36-0.2-0.58-0.2-1.72v-2.2c0-1.3-0.44-1.78-1.44-1.78h-0.76
			V20h-2.2V6h3.32c2.28,0,3.26,1.06,3.26,3.22v1.1c0,1.44-0.46,2.36-1.44,2.82v0.04c1.1,0.46,1.46,1.5,1.46,2.96v2.16
			C293.16,18.98,293.18,19.48,293.4,20L293.4,20z M289.82,8h-1.06v4.3h0.86c0.82,0,1.32-0.36,1.32-1.48V9.44
			C290.94,8.44,290.6,8,289.82,8z M310.3,6l2.24,14h-2.22l-0.38-2.54h-2.7L306.86,20h-2.02l2.24-14H310.3L310.3,6z M308.56,8.48
			l-1.04,7.08h2.12l-1.04-7.08H308.56L308.56,8.48z M322.98,8V6h6.8v2h-2.3v12h-2.2V8H322.98z M343.76,8v3.9h3.02v2h-3.02V18h3.8v2
			h-6V6h6v2H343.76z M363.04,14.2v-2h3.08v4.44c0,2.24-1.12,3.52-3.28,3.52s-3.28-1.28-3.28-3.52V9.36c0-2.24,1.12-3.52,3.28-3.52
			s3.28,1.28,3.28,3.52v1.36h-2.08v-1.5c0-1-0.44-1.38-1.14-1.38s-1.14,0.38-1.14,1.38v7.56c0,1,0.44,1.36,1.14,1.36
			s1.14-0.36,1.14-1.36V14.2C364.04,14.2,363.04,14.2,363.04,14.2z M378.36,20V6h2.2v14H378.36z M395.18,8v3.9h3.02v2h-3.02V18h3.8
			v2h-6V6h6v2H395.18z M410.88,9.36c0-2.24,1.1-3.52,3.24-3.52s3.24,1.28,3.24,3.52V9.8h-2.08V9.22c0-1-0.4-1.38-1.1-1.38
			s-1.1,0.38-1.1,1.38c0,1.02,0.44,1.78,1.88,3.04c1.84,1.62,2.42,2.78,2.42,4.38c0,2.24-1.12,3.52-3.28,3.52s-3.28-1.28-3.28-3.52
			v-0.86h2.08v1c0,1,0.44,1.36,1.14,1.36s1.14-0.36,1.14-1.36c0-1.02-0.44-1.78-1.88-3.04C411.46,12.12,410.88,10.96,410.88,9.36z"
			/>
	</g>
</g>
</svg>
